<svg xmlns="http://www.w3.org/2000/svg" width="88" height="14" fill="none">
  <path d="M7.362 1.138v10.566c.012.312.126.576.342.792.228.216.498.324.81.324h.216l.018.18H3.276v-.18h.234c.3 0 .558-.108.774-.324.228-.216.354-.474.378-.774V1.138h-2.43c-.552.012-.99.186-1.314.522-.324.336-.486.774-.486 1.314v.216h-.18V.0579993C.744.261999 1.452.37 2.376.381999H9.63c.372 0 .774-.036 1.206-.107999.444-.072001.75-.144001.918-.2160007V3.19h-.18v-.216c0-.744-.282-1.272-.846-1.584-.264-.156-.582-.24-.954-.252H7.362zm9.7203 1.8h-.576v8.928c0 .288.096.522.288.702.204.168.432.252.684.252h.198V13h-4.95v-.18h.216c.264 0 .486-.09.666-.27.192-.18.288-.402.288-.666V3.316c0-.264-.096-.486-.288-.666-.18-.18-.396-.27-.648-.27h-.234V2.2h5.526c1.08 0 1.986.21 2.718.63.816.468 1.224 1.242 1.224 2.322 0 .696-.21 1.326-.63 1.89-.42.552-1.044.888-1.872 1.008.324.108.642.312.954.612.324.3.582.606.774.918.384.684.786 1.314 1.206 1.89.42.564.756.93 1.008 1.098.264.168.582.252.954.252V13h-1.512c-.996 0-1.764-.12-2.304-.36-.528-.24-1.002-.696-1.422-1.368-.648-1.032-1.05-1.848-1.206-2.448-.144-.36-.318-.63-.522-.81-.192-.18-.378-.282-.558-.306v-.144h.45c1.02-.012 1.644-.612 1.872-1.8.048-.18.072-.336.072-.468s-.006-.312-.018-.54c-.012-.24-.09-.504-.234-.792-.132-.3-.306-.516-.522-.648-.372-.228-.756-.348-1.152-.36-.132-.012-.282-.018-.45-.018zm19.0405 9.882h.144V13h-5.292v-.18h.144c.24 0 .414-.072.522-.216.108-.144.162-.276.162-.396s-.024-.246-.072-.378l-.702-1.656h-3.816l-.72 1.674c-.048.12-.072.246-.072.378 0 .12.054.252.162.396.12.132.3.198.54.198h.144V13h-3.6v-.18h.144c.252 0 .504-.078.756-.234.252-.156.456-.39.612-.702l3.726-7.992c.528-1.188.804-1.92.828-2.196h.162l4.824 10.116c.156.348.36.606.612.774.264.156.528.234.792.234zm-8.604-3.348h3.204l-1.584-3.762-1.62 3.762zm15.0283 3.762c-2.016-.012-3.6-.51-4.752-1.494-1.152-.996-1.728-2.376-1.728-4.14 0-1.764.57-3.144 1.71-4.14 1.152-.996 2.742-1.494 4.77-1.494 1.584 0 2.934.276 4.05.828v2.862h-.126c-.3-1.068-.762-1.83-1.386-2.286-.624-.456-1.41-.684-2.358-.684-1.272 0-2.244.438-2.916 1.314-.672.864-1.008 2.052-1.008 3.564 0 1.5.33 2.694.99 3.582.684.912 1.614 1.368 2.79 1.368.852 0 1.554-.132 2.106-.396.552-.264.99-.684 1.314-1.26.324-.588.564-1.38.72-2.376h.126l.216 2.718c-.372.612-.942 1.104-1.71 1.476-.756.372-1.692.558-2.808.558zM48.3726 13v-.18h.18c.384 0 .672-.156.864-.468.084-.144.132-.306.144-.486V3.334c-.012-.372-.18-.648-.504-.828-.156-.084-.324-.126-.504-.126h-.198V2.2h4.986v.18h-.198c-.264 0-.498.09-.702.27-.192.18-.294.402-.306.666v8.55c.012.264.114.492.306.684.192.18.426.27.702.27h.18l.018.18h-4.968zm11.862 0h-1.386c-1.668 0-2.856-.462-3.564-1.386-.06-.096-.324-.462-.792-1.098-1.212-1.692-1.818-2.544-1.818-2.556l3.69-4.896c.132-.168.156-.324.072-.468-.084-.156-.228-.234-.432-.234h-.162V2.2h3.672v.162h-.072c-.648 0-1.188.216-1.62.648l-2.988 3.528 3.78 5.256c.48.684 1.02 1.032 1.62 1.044V13zm4.4433-11.826v5.238h2.376c.444-.012.81-.162 1.098-.45.288-.288.432-.654.432-1.098v-.162h.18V8.86h-.18v-.144c0-.444-.144-.81-.432-1.098-.276-.288-.63-.438-1.062-.45h-2.412v4.518c0 .312.114.582.342.81.228.216.498.324.81.324h.216l.018.18h-5.472v-.18h.234c.312 0 .576-.108.792-.324.228-.228.348-.498.36-.81V1.66c0-.42-.198-.732001-.594-.936001-.168-.096-.354-.144-.558-.144h-.234v-.18h6.894c.372 0 .78-.036 1.224-.108.444-.071999.756-.143999.936-.216V3.118h-.18v-.18c0-.528-.156-.948-.468-1.26-.3-.324-.714-.492-1.242-.504h-3.078zm6.1939 11.646h.216c.288 0 .534-.09.738-.27.204-.192.306-.42.306-.684V3.334c0-.264-.102-.486-.306-.666-.204-.192-.45-.288-.738-.288h-.216V2.2h5.112v.18h-.216c-.276 0-.516.09-.72.27-.204.18-.312.402-.324.666v8.55c.012.276.12.504.324.684.204.18.444.27.72.27h.216V13h-5.112v-.18zm16.1381-8.064v-.162c0-.516-.144-.924-.432-1.224-.288-.3-.69-.456-1.206-.468h-2.088v8.982c.012.264.114.486.306.666.192.18.42.27.684.27h.198V13h-4.968v-.18h.18c.276 0 .51-.09.702-.27.192-.18.288-.408.288-.684V2.902h-2.07c-.528.012-.936.168-1.224.468-.288.3-.432.708-.432 1.224v.162h-.18V1.912c.168.06.444.12.828.18.396.06.75.09 1.062.09h6.642c.528 0 .96-.036 1.296-.108.348-.084.546-.138.594-.162v2.844h-.18z" fill="#FFF"/>
</svg>
